<svg width="58" height="25" viewBox="0 0 58 25" fill="none" xmlns="http://www.w3.org/2000/svg">
<path d="M16.5 3.5L7.5 12.502L16.495 21.5" stroke="#CAFFBF" stroke-width="1.5" stroke-linecap="round" stroke-linejoin="round"/>
<path d="M25.0685 8.712H26.2325V12.072H30.3725V8.712H31.5365V16.5H30.3725V12.888H26.2325V16.5H25.0685V8.712ZM35.2689 16.62C34.7169 16.62 34.2889 16.568 33.9849 16.464C33.6889 16.36 33.4729 16.176 33.3369 15.912C33.2089 15.648 33.1449 15.268 33.1449 14.772C33.1449 14.332 33.2049 13.992 33.3249 13.752C33.4529 13.504 33.6649 13.328 33.9609 13.224C34.2649 13.12 34.6929 13.068 35.2449 13.068H36.9849V12.144C36.9849 11.928 36.9409 11.764 36.8529 11.652C36.7729 11.532 36.6329 11.448 36.4329 11.4C36.2409 11.352 35.9569 11.328 35.5809 11.328C34.9809 11.328 34.3169 11.376 33.5889 11.472V10.68C34.3809 10.608 35.0969 10.572 35.7369 10.572C36.4089 10.572 36.9049 10.624 37.2249 10.728C37.5449 10.824 37.7649 10.996 37.8849 11.244C38.0049 11.492 38.0649 11.876 38.0649 12.396V16.5H37.0209V15.948C36.9329 16.396 36.3489 16.62 35.2689 16.62ZM35.4489 15.912C35.8409 15.912 36.1729 15.884 36.4449 15.828C36.8049 15.756 36.9849 15.588 36.9849 15.324V13.74H35.3169C34.9729 13.74 34.7249 13.768 34.5729 13.824C34.4209 13.872 34.3209 13.968 34.2729 14.112C34.2249 14.256 34.2009 14.488 34.2009 14.808C34.2009 15.096 34.2289 15.32 34.2849 15.48C34.3409 15.632 34.4409 15.744 34.5849 15.816C34.7289 15.88 34.9449 15.912 35.2329 15.912H35.4489ZM41.234 16.62C40.762 16.62 40.218 16.552 39.602 16.416V15.564C40.202 15.74 40.746 15.828 41.234 15.828C41.786 15.828 42.19 15.768 42.446 15.648C42.702 15.52 42.83 15.28 42.83 14.928V14.556C42.83 14.26 42.698 14.064 42.434 13.968C42.178 13.864 41.814 13.812 41.342 13.812H40.682V13.068H41.138C41.626 13.068 41.998 13.012 42.254 12.9C42.51 12.788 42.638 12.588 42.638 12.3V11.94C42.638 11.524 42.158 11.316 41.198 11.316C40.694 11.316 40.202 11.364 39.722 11.46V10.68C40.178 10.608 40.666 10.572 41.186 10.572C41.802 10.572 42.282 10.604 42.626 10.668C42.97 10.732 43.238 10.852 43.43 11.028C43.63 11.204 43.73 11.488 43.73 11.88V12.348C43.73 12.604 43.634 12.816 43.442 12.984C43.258 13.144 43.018 13.248 42.722 13.296V13.344C43.546 13.472 43.958 13.828 43.958 14.412V15.012C43.958 15.284 43.902 15.528 43.79 15.744C43.686 15.952 43.546 16.112 43.37 16.224C43.13 16.376 42.826 16.48 42.458 16.536C42.098 16.592 41.69 16.62 41.234 16.62ZM47.3978 16.62C46.8458 16.62 46.4178 16.568 46.1138 16.464C45.8178 16.36 45.6018 16.176 45.4658 15.912C45.3378 15.648 45.2738 15.268 45.2738 14.772C45.2738 14.332 45.3338 13.992 45.4538 13.752C45.5818 13.504 45.7938 13.328 46.0898 13.224C46.3938 13.12 46.8218 13.068 47.3738 13.068H49.1138V12.144C49.1138 11.928 49.0698 11.764 48.9818 11.652C48.9018 11.532 48.7618 11.448 48.5618 11.4C48.3698 11.352 48.0858 11.328 47.7098 11.328C47.1098 11.328 46.4458 11.376 45.7178 11.472V10.68C46.5098 10.608 47.2258 10.572 47.8658 10.572C48.5378 10.572 49.0338 10.624 49.3538 10.728C49.6738 10.824 49.8938 10.996 50.0138 11.244C50.1338 11.492 50.1938 11.876 50.1938 12.396V16.5H49.1498V15.948C49.0618 16.396 48.4778 16.62 47.3978 16.62ZM47.5778 15.912C47.9698 15.912 48.3018 15.884 48.5738 15.828C48.9338 15.756 49.1138 15.588 49.1138 15.324V13.74H47.4458C47.1018 13.74 46.8538 13.768 46.7018 13.824C46.5498 13.872 46.4498 13.968 46.4018 14.112C46.3538 14.256 46.3298 14.488 46.3298 14.808C46.3298 15.096 46.3578 15.32 46.4138 15.48C46.4698 15.632 46.5698 15.744 46.7138 15.816C46.8578 15.88 47.0738 15.912 47.3618 15.912H47.5778ZM57.5749 15.792V18.108H56.6509V16.5H52.1749V18.108H51.2509V15.792H51.6229C51.7989 15.792 51.9709 15.66 52.1389 15.396C52.3069 15.124 52.4469 14.692 52.5589 14.1C52.6709 13.5 52.7269 12.74 52.7269 11.82V10.692H56.7589V15.792H57.5749ZM55.6789 15.792V11.4H53.6749V12.24C53.6749 13.072 53.6189 13.788 53.5069 14.388C53.4029 14.98 53.2069 15.448 52.9189 15.792H55.6789Z" fill="#CAFFBF"/>
</svg>
