<svg width="24" height="24" viewBox="0 0 24 24" fill="none" xmlns="http://www.w3.org/2000/svg">
<path d="M9.50903 18.0025V18.5147C9.50903 19.1752 9.77154 19.8086 10.2388 20.2754C10.706 20.7423 11.3396 21.0043 12.0001 21.0038V21.0038C12.6606 21.004 13.2943 20.7418 13.7614 20.2748C14.2286 19.8078 14.4911 19.1743 14.4911 18.5137V18.0025" stroke="#6C757D" stroke-linecap="round" stroke-linejoin="round"/>
<path fill-rule="evenodd" clip-rule="evenodd" d="M17.9496 18.0025C19.084 18.0025 20.0035 17.083 20.0035 15.9486V15.9486C20.003 15.3724 19.7742 14.8199 19.3672 14.412L18.0027 13.0484V8.99875C18.0027 5.68366 15.3152 2.99625 12.0002 2.99625V2.99625C8.68507 2.99625 5.99766 5.68366 5.99766 8.99875V13.0484L4.63309 14.412C4.22608 14.8199 3.99729 15.3724 3.99683 15.9486V15.9486C3.99683 16.4934 4.21321 17.0158 4.59839 17.4009C4.98356 17.7861 5.50597 18.0025 6.05068 18.0025H17.9496Z" stroke="#6C757D" stroke-linecap="round" stroke-linejoin="round"/>
</svg>
