<svg width="24" height="24" viewBox="0 0 24 24" fill="none" xmlns="http://www.w3.org/2000/svg">
<path d="M8.92683 16.0016L8.42662 20.0033" stroke="#6C757D" stroke-linecap="round" stroke-linejoin="round"/>
<path d="M20.4316 8.99875V5.42526C20.4316 4.08375 19.3441 2.99625 18.0026 2.99625H5.42535C4.08384 2.99625 2.99634 4.08375 2.99634 5.42526V13.5727C2.99634 14.9142 4.08384 16.0017 5.42535 16.0017H13.0005" stroke="#6C757D" stroke-linecap="round" stroke-linejoin="round"/>
<path fill-rule="evenodd" clip-rule="evenodd" d="M21.5041 21.0038H15.0014C14.7252 21.0038 14.5012 20.7798 14.5012 20.5035V20.0974C14.5045 18.9418 15.4405 18.0058 16.5961 18.0025H19.9095C21.0651 18.0058 22.001 18.9418 22.0043 20.0974V20.5035C22.0043 20.7798 21.7804 21.0038 21.5041 21.0038Z" stroke="#6C757D" stroke-linecap="round" stroke-linejoin="round"/>
<path fill-rule="evenodd" clip-rule="evenodd" d="M18.2527 15.5015C17.1484 15.4992 16.2548 14.6029 16.2559 13.4986C16.257 12.3944 17.1524 11.4998 18.2567 11.4998C19.3609 11.4998 20.2564 12.3944 20.2575 13.4986C20.2586 14.6029 19.3649 15.4992 18.2607 15.5015H18.2527Z" stroke="#6C757D" stroke-linecap="round" stroke-linejoin="round"/>
<path d="M6.92603 20.0033H10.9997" stroke="#6C757D" stroke-linecap="round" stroke-linejoin="round"/>
</svg>
